<svg width="64" height="28" viewBox="0 0 64 28" fill="none" xmlns="http://www.w3.org/2000/svg">
<g id="Logo" clip-path="url(#clip0_307_14167)">
<path id="Vector" d="M15.7626 0.03125H0V22.3128H15.7626V0.03125Z" fill="url(#paint0_linear_307_14167)"/>
<path id="Vector_2" d="M28.2651 5.64251C32.0341 5.64251 34.3721 8.03109 34.3721 11.7303V16.219C34.3721 19.9183 32.0341 22.3322 28.2651 22.3322H26.9419C23.1679 22.3322 20.8574 19.9183 20.8574 16.219V0H24.6815V6.06253C25.4333 5.79939 26.2954 5.64251 27.2276 5.64251H28.2676H28.2651ZM26.9419 9.39237C25.5887 9.39237 24.7066 10.364 24.679 11.7303V16.1102C24.679 17.5297 25.5611 18.552 26.9419 18.552H28.2651C29.6434 18.552 30.6031 17.5272 30.6031 16.1102V11.8341C30.6031 10.4146 29.6459 9.39237 28.2651 9.39237H26.9419Z" fill="white"/>
<path id="Vector_3" d="M47.8993 5.95958H48.3404V10.0257H47.8993C44.7493 10.0257 40.9578 12.8622 40.9578 15.3823V22.3355H36.9307V5.51172H40.9578V9.05157C42.2057 7.00711 45.1427 5.95705 47.8993 5.95705V5.95958Z" fill="white"/>
<path id="Vector_4" d="M63.9996 5.64258V22.3576C63.9996 25.8999 61.8395 28.0001 58.7196 28.0001H51.2893V24.3514H58.1206C59.4237 24.3514 60.4637 23.4861 60.4637 22.016V21.806H55.6247C52.7127 21.806 50.3496 19.7311 50.3496 15.9003V11.5457C50.3496 7.71234 52.7127 5.64258 55.6247 5.64258H63.9971H63.9996ZM60.4386 9.29123H56.4316C55.1335 9.29123 54.0685 10.4982 54.0685 11.9404V15.4803C54.0685 16.9504 55.1335 18.1573 56.4316 18.1573H60.4386V9.29123Z" fill="white"/>
</g>
<defs>
<linearGradient id="paint0_linear_307_14167" x1="-2.80669" y1="17.4041" x2="18.6719" y2="5.11951" gradientUnits="userSpaceOnUse">
<stop stop-color="#3492C3"/>
<stop offset="0.91" stop-color="#552278"/>
<stop offset="1" stop-color="#532374"/>
</linearGradient>
<clipPath id="clip0_307_14167">
<rect width="64" height="28" fill="white"/>
</clipPath>
</defs>
</svg>
