<svg width="64" height="28" viewBox="0 0 64 28" fill="none" xmlns="http://www.w3.org/2000/svg">
<g id="brg global logo font white 768" clip-path="url(#clip0_923_2358)">
<path id="Vector" d="M15.7626 0.0292969H0V22.3109H15.7626V0.0292969Z" fill="url(#paint0_linear_923_2358)"/>
<path id="Vector_2" d="M28.2631 5.64251C32.0321 5.64251 34.3702 8.03109 34.3702 11.7303V16.219C34.3702 19.9183 32.0321 22.3322 28.2631 22.3322H26.94C23.166 22.3322 20.8555 19.9183 20.8555 16.219V0H24.6796V6.06253C25.4314 5.79939 26.2934 5.64251 27.2256 5.64251H28.2656H28.2631ZM26.94 9.39237C25.5867 9.39237 24.7046 10.364 24.6771 11.7303V16.1102C24.6771 17.5297 25.5592 18.552 26.94 18.552H28.2631C29.6414 18.552 30.6012 17.5272 30.6012 16.1102V11.8341C30.6012 10.4146 29.6439 9.39237 28.2631 9.39237H26.94Z" fill="#333A39"/>
<path id="Vector_3" d="M47.8983 5.95958H48.3394V10.0257H47.8983C44.7483 10.0257 40.9568 12.8622 40.9568 15.3823V22.3355H36.9297V5.51172H40.9568V9.05157C42.2048 7.00711 45.1418 5.95705 47.8983 5.95705V5.95958Z" fill="#333A39"/>
<path id="Vector_4" d="M64.0016 5.64258V22.3576C64.0016 25.8999 61.8414 28.0001 58.7215 28.0001H51.2913V24.3514H58.1226C59.4257 24.3514 60.4657 23.4861 60.4657 22.016V21.806H55.6266C52.7147 21.806 50.3516 19.7311 50.3516 15.9003V11.5457C50.3516 7.71234 52.7147 5.64258 55.6266 5.64258H63.9991H64.0016ZM60.4406 9.29123H56.4336C55.1355 9.29123 54.0704 10.4982 54.0704 11.9404V15.4803C54.0704 16.9504 55.1355 18.1573 56.4336 18.1573H60.4406V9.29123Z" fill="#333A39"/>
</g>
<defs>
<linearGradient id="paint0_linear_923_2358" x1="-2.80669" y1="17.4021" x2="18.6719" y2="5.11756" gradientUnits="userSpaceOnUse">
<stop stop-color="#3492C3"/>
<stop offset="0.91" stop-color="#552278"/>
<stop offset="1" stop-color="#532374"/>
</linearGradient>
<clipPath id="clip0_923_2358">
<rect width="64" height="28" fill="white"/>
</clipPath>
</defs>
</svg>
